<svg xmlns="http://www.w3.org/2000/svg" viewBox="0 0 72 72">
    <g fill="none" stroke="#666" stroke-linecap="round" stroke-linejoin="round" stroke-width="6">
        <path d="m45.5271 36.5453c5.8565 1.4749 9.2792-7.5763.8148-9.3306l-14.8419-2.9022c1.125-10.875 2-17.875-6.0625-19.3125-2.4622-.375-5.5 0-4.875 2.5 3.25 14.625-3.125 22.6042-4.8966 24.4548-7.1985 7.1985-7.1985 18.8695 0 26.068 3.1257 2.9355 6.1596 2.7272 13.7716 2.7272 1.4375 0 20.6327 4.7314 20.6327 4.7314 6.875 1.8125 8.9705-5.5167 4.3455-7.0792l-4.3455-1.5669"/>
        <path d="m44.703 45.5795c5.8255 1.5323 8.0626-7.4024.8241-9.0342"/>
        <path d="m43.4119 54.7786c5.8275 1.5711 7.1882-7.5953 1.2911-9.1992"/>
        <g stroke-miterlimit="10">
            <path d="m43.4119 54.7786-5.6929-1.5831"/>
            <path d="m44.703 45.5795-5.0276-1.4322"/>
            <path d="m45.5271 36.5453-4.1336-.8438"/>
        </g>
    </g>
</svg>
