<svg xmlns="http://www.w3.org/2000/svg" xmlns:xlink="http://www.w3.org/1999/xlink" fill="none" height="80"
     viewBox="0 0 80 80" width="80">
    <linearGradient id="a">
        <stop offset=".00132565" stop-color="#ffcb4b"/>
        <stop offset="1" stop-color="#ffd748"/>
    </linearGradient>
    <linearGradient id="b" gradientUnits="userSpaceOnUse" x1="-2.68441" x2="51.3336" xlink:href="#a" y1="36.662"
                    y2="15.7473"/>
    <linearGradient id="c" gradientUnits="userSpaceOnUse" x1="28.4678" x2="43.633" xlink:href="#a" y1="28.0542"
                    y2="39.6447"/>
    <linearGradient id="d">
        <stop offset="0" stop-color="#fbe07a"/>
        <stop offset="1" stop-color="#ffd748" stop-opacity="0"/>
    </linearGradient>
    <radialGradient id="e" cx="0" cy="0"
                    gradientTransform="matrix(2.64136609 8.31717118 -4.8823632 1.55054024 37.6294 13.6646)"
                    gradientUnits="userSpaceOnUse" r="1" xlink:href="#d"/>
    <linearGradient id="f" gradientUnits="userSpaceOnUse" x1="74.2318" x2="55.9866" xlink:href="#a" y1="36.746"
                    y2="34.976"/>
    <linearGradient id="g" gradientUnits="userSpaceOnUse" x1="73.1776" x2="55.0926" xlink:href="#a" y1="47.6142"
                    y2="45.8597"/>
    <linearGradient id="h" gradientUnits="userSpaceOnUse" x1="72.227" x2="50.3834" xlink:href="#a" y1="57.1429"
                    y2="55.9862"/>
    <linearGradient id="i" gradientUnits="userSpaceOnUse" x1="16.7699" x2="54.3246" xlink:href="#a" y1="71.5515"
                    y2="47.6774"/>
    <linearGradient id="j">
        <stop offset="0" stop-color="#ffbc47" stop-opacity="0"/>
        <stop offset="1" stop-color="#c86f34"/>
    </linearGradient>
    <linearGradient id="k" gradientUnits="userSpaceOnUse" x1="39.8076" x2="45.4403" xlink:href="#j" y1="79.7544"
                    y2="49.4242"/>
    <linearGradient id="l" gradientUnits="userSpaceOnUse" x1="59.3322" x2="60.6862" xlink:href="#j" y1="43.5482"
                    y2="57.4677"/>
    <linearGradient id="m" gradientUnits="userSpaceOnUse" x1="64.9269" x2="45.9399" xlink:href="#j" y1="51.0241"
                    y2="60.7309"/>
    <linearGradient id="n" gradientUnits="userSpaceOnUse" x1="78.9611" x2="45.5827" xlink:href="#a" y1="42.6468"
                    y2="39.4086"/>
    <linearGradient id="o" gradientUnits="userSpaceOnUse" x1="68.3467" x2="4.78266" xlink:href="#j" y1="54.5339"
                    y2="29.5698"/>
    <linearGradient id="p" gradientUnits="userSpaceOnUse" x1="66.7351" x2="54.3141" xlink:href="#j" y1="27.4133"
                    y2="48.0668"/>
    <linearGradient id="q" gradientUnits="userSpaceOnUse" x1="63.6866" x2="57.7472" xlink:href="#j" y1="41.3443"
                    y2="40.7681"/>
    <linearGradient id="r" gradientUnits="userSpaceOnUse" x1="59.9646" x2="59.098" xlink:href="#j" y1="33.7565"
                    y2="53.0378"/>
    <linearGradient id="s" gradientUnits="userSpaceOnUse" x1="61.4082" x2="58.2228" xlink:href="#j" y1="57.1988"
                    y2="45.9531"/>
    <linearGradient id="t" gradientUnits="userSpaceOnUse" x1="52.0409" x2="49.9144" xlink:href="#j" y1="24.727"
                    y2="43.8655"/>
    <linearGradient id="u" gradientUnits="userSpaceOnUse" x1="32.4691" x2="-44.6566" xlink:href="#j" y1="42.4452"
                    y2="10.1651"/>
    <linearGradient id="v" gradientUnits="userSpaceOnUse" x1="86.7021" x2="-270.907" xlink:href="#j" y1="89.461"
                    y2="-82.411"/>
    <linearGradient id="w" gradientUnits="userSpaceOnUse" x1="66.7603" x2="-27.0826" xlink:href="#j" y1="43.6494"
                    y2="20.0447"/>
    <linearGradient id="x" gradientUnits="userSpaceOnUse" x1="72.7543" x2="-13.2537" xlink:href="#j" y1="67.5761"
                    y2="22.2972"/>
    <linearGradient id="y" gradientUnits="userSpaceOnUse" x1="59.4842" x2="56.659" xlink:href="#j" y1="56.2753"
                    y2="63.302"/>
    <linearGradient id="z" gradientUnits="userSpaceOnUse" x1="59.285" x2="67.086" xlink:href="#j" y1="78.0002"
                    y2="37.1412"/>
    <radialGradient id="A" cx="0" cy="0"
                    gradientTransform="matrix(5.64496458 1.32428474 -.79292366 3.37995737 59.8109 35.6788)"
                    gradientUnits="userSpaceOnUse" r="1" xlink:href="#d"/>
    <radialGradient id="B" cx="0" cy="0"
                    gradientTransform="matrix(5.40405159 2.10248717 -1.25860832 3.23501821 58.8299 46.4741)"
                    gradientUnits="userSpaceOnUse" r="1" xlink:href="#d"/>
    <radialGradient id="C" cx="0" cy="0"
                    gradientTransform="matrix(5.51774453 1.78172563 -1.0666699 3.30332117 57.6076 56.4684)"
                    gradientUnits="userSpaceOnUse" r="1" xlink:href="#d"/>
    <radialGradient id="D" cx="0" cy="0"
                    gradientTransform="matrix(10.05288513 3.29818382 -.90012135 2.74357555 59.779 67.2972)"
                    gradientUnits="userSpaceOnUse" r="1" xlink:href="#d"/>
    <path d="m43.1516 35.4513c-2.7186-3.3379.8609-8.2448-.3471-18.5722-1.2107-10.32741-6.9645-11.04662-8.6029-10.85501-3.2101.37489-4.1293 3.08518-3.2962 8.03091.5498 3.2601 2.7269 12.2685-1.3635 17.4447-3.8127 4.8235-7.2867 13.0405-13.4543 13.507"
          fill="url(#b)"/>
    <path d="m21.0401 44.8182c2.0716-3.2157 3.8599-6.0621 9.4638-10.7079 5.6038-4.6458 3.5572-15.3731 2.6436-18.922s-1.2079-8.90008 1.0497-9.16389c-3.2101.37489-4.1293 3.08518-3.2962 8.03089.5498 3.2601 2.7269 12.2685-1.3635 17.4447-3.8127 4.8235-8.3447 13.507-13.4542 13.507"
          fill="url(#c)"/>
    <path d="m39.5958 20.5269c-2.277.7776-4.5486-2.2271-6.0592-5.8676-1.2358-2.9769-.5082-7.03679 1.7356-7.75047 2.2437-.71089 4.7374.96916 6.3897 5.39837 1.3746 3.6989.161 7.4589-2.0661 8.2197z"
          fill="url(#e)"/>
    <path d="m43.0166 29.0949c6.7146-1.6245 8.6862-.5915 10.0969-.3971 2.888.3971 15.3565 3.2129 14.3818 9.461-.9164 5.8649-6.3342 3.585-12.213 1.3524"
          fill="url(#f)"/>
    <path d="m56.1961 39.8555c5.851 2.2993 11.7215 3.4378 10.544 9.0278-1.1191 5.3067-4.9957 4.0099-9.6776 2.3826-2.0133-.6998-4.2959-1.3357-4.2959-1.3357"
          fill="url(#g)"/>
    <path d="m52.4639 60.3216c7.4921 2.7242 11.9019 3.1241 12.7433-1.1913 1.0164-5.229-4.0182-6.3342-10.7912-8.7446"
          fill="url(#h)"/>
    <path d="m39.0625 29.475c-7.7449 1.5717-16.3034 9.6943-17.8196 9.6943s-6.7146-.9747-9.2611-.9747c-1.7883 0-4.9818 4.7124-4.9818 11.4826s2.59921 17.3308 7.8532 17.3308c5.2539 0 6.1731-2.6547 9.9109-1.7328 3.7377.922 10.2357 2.005 13.7569 2.005 3.5211 0 19.6607 4.2237 27.5139 6.3369 7.8531 2.1133 9.6942-5.1456 5.5788-6.5535s-12.8294-5.3651-18.7859-6.6091l1.6717-5.304.597-9.4777 1.5412-6.1925-13.6181-10.3802z"
          fill="url(#i)"/>
    <path d="m73.652 70.685c-2.1827 5.9621-24.898-4.4403-29.6244-4.8874-4.7652-.4527-13.1432-1.3191-16.2839-2.7797-3.1407-1.4607-3.6572-3.3296-4.4403-2.5465-.6887.6887-7.0923 4.3793-12.749 3.6378 1.1525 1.7578 2.5798 2.8991 4.2987 2.8991 5.254 0 6.1732-2.6547 9.9109-1.7328 3.7378.922 10.2358 2.005 13.7569 2.005 3.5212 0 19.6608 4.2237 27.5139 6.3369 4.6375 1.2469 7.1618-.7775 7.6172-2.9324z"
          fill="url(#k)"/>
    <path d="m66.7375 48.8833c.1583-.7526.1805-1.419.1-2.0244-.1833 2.8047-2.6103 5.8621-6.1676 4.4625-3.5739-1.4079-7.095-1.3912-7.9087-1.3912 0 0 2.2826.6359 4.2959 1.3357 4.6875 1.6245 8.5613 2.9241 9.6804-2.3826z"
          fill="url(#l)"/>
    <path d="m65.3268 58.1333c.2083-4.3848-4.5931-5.4984-10.9134-7.7477 0 0-.4165-.1916-1.6495-.4554 0 0 3.0935 1.9827 5.9038 2.7603 4.8763 1.3496 6.6369 4.4431 6.6591 5.4428z"
          fill="url(#m)"/>
    <path d="m52.7636 49.9302s2.2827.636 4.296 1.3358c4.6819 1.6272 8.5585 2.9241 9.6776-2.3827 1.1802-5.5899-4.6903-6.7257-10.544-9.0278l-.9109-.3443c5.8788 2.2354 11.2966 4.5125 12.213-1.3524.9747-6.2453-11.4938-9.0639-14.3818-9.461-1.4107-.1944-3.3823-1.2274-10.0969.3971"
          fill="url(#n)"/>
    <path d="m50.0562 47.906c-1.5467 3.3684 4.357 2.477 15.1954 9.125-.5859-3.3601-4.7735-4.5208-10.2247-6.4286.6443.1999 1.3524.4277 2.0355.6637 4.2932 1.4912 7.9004 2.6908 9.3361-1.2108-7.4144.4305-14.7178-5.6871-16.3423-2.1493z"
          fill="url(#o)"/>
    <path d="m57.0986 39.5666c-3.9211-1.1746-5.2484-1.2746-4.8236-.7581 1.4302.3999 3.1296.8859 4.8541 1.4052-.1555-.0584-.311-.1194-.4693-.1805.1694.0638.3388.1277.5054.1916 1.519.4582 3.0519.9386 4.4348 1.4079 3.0463.6609 5.3317.1472 5.8954-3.474.1833-1.1829-.1111-2.2687-.7303-3.2573 1.1469 5.3011-2.1605 6.9173-9.6665 4.6652z"
          fill="url(#p)"/>
    <path d="m57.1653 40.2217c1.5745.5887 3.0796 1.1135 4.4348 1.4079-1.383-.4693-2.9158-.9497-4.4348-1.4079z"
          fill="url(#q)"/>
    <path d="m57.4233 41.5164c5.8483 2.4909 8.6502 2.6659 9.4166 5.3401-.4804-3.6489-4.9735-4.8652-9.7109-6.6452-1.7217-.5193-3.424-1.0053-4.8541-1.4051.3971.4859 2.3215 1.5078 5.1484 2.7102z"
          fill="url(#r)"/>
    <path d="m66.7374 48.8827c-.9025 3.2129-6.312 2.9131-13.4849.1639-4.0987-1.5718-.4887.8858-.4887.8858s2.2827.6359 4.2959 1.3357c4.6847 1.6218 8.5585 2.9214 9.6777-2.3854z"
          fill="url(#s)"/>
    <path d="m34.7278 32.1468c4.7652-1.8772 12.3684-2.5576 17.3864-2.0772 5.2595.5054 11.5548 2.8658 15.1648 5.876h.0028c-1.7523-4.8846-11.6382-6.9007-14.1679-7.2478-1.4107-.1944-3.3823-1.2274-10.097.3971l.0112.025-2.4077.2138c-2.3381.4749-5.8926 2.8131-5.8926 2.8131z"
          fill="url(#t)"/>
    <path d="m31.9145 32.3579c-5.1929 2.9186-9.6221 6.8091-10.6718 6.8091-1.5162 0-6.7146-.9748-9.2611-.9748-1.0108 0-2.47144 1.5107-3.55167 4.0433 5.55387-4.2959 5.35397.4526 13.36257-.1889 4.6792-.3721 8.0865-4.5014 10.122-9.6887z"
          fill="url(#u)"/>
    <path d="m24.7641 65.2759c3.7378.922 10.2358 2.0049 13.757 2.0049 3.5211 0 19.6607 4.2238 27.5139 6.337 4.6402 1.2469 7.1644-.7747 7.6171-2.9296-2.2827 2.2826-18.5055-2.2688-32.0792-7.6866-13.5764-5.415-14.0096-8.5446-16.7532-8.5446-2.4465 0-11.3105 4.2931-17.50305-.3916.8303 6.1732 3.33235 12.9433 7.53935 12.9433 5.2484 0 6.1704-2.6547 9.9081-1.7328z"
          fill="url(#v)"/>
    <path d="m66.5347 40.6491h-.0139c-5.0901-.3249-14.9066-6.6591-16.4644-2.8158-1.4801 3.6461 11.0744 5.776 16.8115 9.4888-.1583-4.1349-5.1123-5.3317-10.2108-7.2895 4.246 1.6079 8.0726 2.8936 9.8776.6165z"
          fill="url(#w)"/>
    <path d="m71.6136 67.0608c-2.9019-.9914-8.0836-3.2463-12.9766-4.9319 3.7544.6915 5.9982-.0527 6.5702-3.0018.0528-.2749.0833-.536.1028-.7887-2.8047 1.283-9.2528 2.2216-13.4931.2028-5.0902-2.4271-5.3345 1.0635.0388 3.2767 4.0905 1.6856 16.5728 6.623 21.5907 6.8646-.3305-.7137-.9303-1.3107-1.8328-1.6217z"
          fill="url(#x)"/>
    <path d="m51.2754 59.3639c.7303.9247 1.4495 1.0469 1.5079 1.0719 7.17 2.5742 11.4409 2.9241 12.3684-1.1052-2.1938 1.605-4.5597 2.4964-13.8763.0333z"
          fill="url(#y)"/>
    <path d="m58.6092 62.1237c-1.6356-.3027-3.56-.8775-5.7566-1.6634-.0083-.0027-.0167-.0055-.025-.0055l-.0083-.0056c-.0111-.0055-.0222-.0083-.0334-.0111-.0583-.025-.7775-.1472-1.5078-1.0719 0 0-.9192.9275 1.8133 1.9411 26.9724 10.0025 18.5222 5.7594 18.5222 5.7594-2.9075-.9997-8.1031-3.2601-13.0044-4.943z"
          fill="url(#z)"/>
    <path d="m65.2851 37.1306c-.4026 1.8995-3.3656 2.2438-6.4508 1.7995-2.5215-.3638-4.979-2.5326-4.5458-4.3792.4332-1.8467 1.1135-3.4268 6.2675-2.2188 3.038.7109 5.1235 2.9435 4.7291 4.7985z"
          fill="url(#A)"/>
    <path d="m64.0106 48.6947c-.6637 1.8244-3.6489 1.7495-6.6397.8775-2.4464-.7137-4.5763-3.2046-3.8877-4.9735.6887-1.7689 1.5829-3.2351 6.5175-1.319 2.9102 1.1302 4.6597 3.6322 4.0099 5.415z"
          fill="url(#B)"/>
    <path d="m62.9328 58.3636c-.5554 1.8605-3.5406 1.9605-6.5785 1.2662-2.4854-.5665-4.7541-2.9324-4.1738-4.7374.5832-1.805 1.3913-3.324 6.4286-1.6995 2.9714.9553 4.868 3.3518 4.3237 5.1707z"
          fill="url(#C)"/>
    <path d="m69.5394 70.6654c-.4221 1.5607-5.5483.7665-10.9994-.7858-4.4598-1.2691-9.0695-4.1377-8.5863-5.6428.4832-1.5023 1.4412-2.6686 10.619.3388 5.4094 1.7745 9.3804 4.5625 8.9667 6.0898z"
          fill="url(#D)"/>
</svg>
